# xmcd CD database file
#
# Track frame offsets:
#	150
#	13945
#	25567
#	38861
#	54514
#	69117
#	82811
#	95321
#	107849
#	123837
#
# Disc length: 1842 seconds
#
# Revision: 1
# Processed by: cddbd v1.5.1PL0 Copyright (c) Steve Scherf et al.
# Submitted via: CDex 1.51
#
DISCID=6c07300a
DTITLE=Various Artist - Sirens Of Song-Torch Songs Of the 30's and 40's
DYEAR=1900
DGENRE=Ballad
TTITLE0=Near You - The Andrews Sisters
TTITLE1=Little Girl Blue - Lena Horne
TTITLE2=I Wish I Didn'T Love You So - Dinah Shore
TTITLE3=It'S Magic - Doris Day
TTITLE4=It Might As Well Be Spring - Margaret Whiting
TTITLE5=The Moon Of Manakoora - Dorothy Lamour
TTITLE6=That's For Me - Jo Stafford
TTITLE7=Out of Nowhere - Helen Forrest
TTITLE8=I'Ll Be Seeing You - Billie Holiday/Eddie Heywood's Orchestra
TTITLE9=Willow Weep For Me - June Christy/Stan Kenton's Orchestra
EXTD=
EXTT0=
EXTT1=
EXTT2=
EXTT3=
EXTT4=
EXTT5=
EXTT6=
EXTT7=
EXTT8=
EXTT9=
PLAYORDER=
